<svg width="30" height="30" viewBox="0 0 30 30" fill="none" xmlns="http://www.w3.org/2000/svg">
<path d="M8.1281 8.71898C8.48115 5.18853 11.4519 2.5 15 2.5C18.5481 2.5 21.5189 5.18853 21.8719 8.71898L22.2302 12.3017C22.3012 13.0122 22.3367 13.3674 22.4025 13.7137C22.5582 14.5334 22.8412 15.3236 23.2412 16.0559C23.4101 16.3651 23.6081 16.6622 24.0042 17.2564L25.4271 19.3906C26.3396 20.7593 26.7958 21.4437 26.5132 21.9719C26.2305 22.5 25.408 22.5 23.763 22.5H6.23703C4.59201 22.5 3.7695 22.5 3.48684 21.9719C3.20419 21.4437 3.66044 20.7593 4.57293 19.3906L5.99577 17.2564C6.39186 16.6622 6.58991 16.3651 6.75884 16.0559C7.15882 15.3236 7.44179 14.5334 7.59749 13.7137C7.66326 13.3674 7.69878 13.0122 7.76983 12.3017L8.1281 8.71898Z" fill="#A6A6A6"/>
<path d="M12.5852 25.7868C12.7276 25.9197 13.0415 26.0371 13.4781 26.1208C13.9147 26.2046 14.4497 26.25 15 26.25C15.5503 26.25 16.0853 26.2046 16.5219 26.1208C16.9585 26.0371 17.2724 25.9197 17.4148 25.7868" stroke="#A6A6A6" stroke-width="2" stroke-linecap="round"/>
</svg>
