<svg width="23" height="23" viewBox="0 0 23 23" fill="none" xmlns="http://www.w3.org/2000/svg">
<path d="M1.91675 8.62435C1.91675 6.9003 1.91675 6.03827 2.41307 5.47232C2.47063 5.40669 2.53242 5.3449 2.59806 5.28734C3.164 4.79102 4.02603 4.79102 5.75008 4.79102H17.2501C18.9741 4.79102 19.8362 4.79102 20.4021 5.28734C20.4677 5.3449 20.5295 5.40669 20.5871 5.47232C21.0834 6.03827 21.0834 6.9003 21.0834 8.62435C21.0834 9.05536 21.0834 9.27087 20.9593 9.41235C20.9449 9.42876 20.9295 9.44421 20.9131 9.4586C20.7716 9.58268 20.5561 9.58268 20.1251 9.58268H2.87508C2.44407 9.58268 2.22856 9.58268 2.08708 9.4586C2.07067 9.44421 2.05522 9.42876 2.04083 9.41235C1.91675 9.27087 1.91675 9.05536 1.91675 8.62435Z" fill="#B4B4BB"/>
<path d="M1.91675 17.084C1.91675 18.9696 1.91675 19.9124 2.50253 20.4982C3.08832 21.084 4.03113 21.084 5.91675 21.084H17.0834C18.969 21.084 19.9118 21.084 20.4976 20.4982C21.0834 19.9124 21.0834 18.9696 21.0834 17.084V12.5007C21.0834 12.0292 21.0834 11.7935 20.937 11.6471C20.7905 11.5007 20.5548 11.5007 20.0834 11.5007H2.91675C2.44534 11.5007 2.20964 11.5007 2.06319 11.6471C1.91675 11.7935 1.91675 12.0292 1.91675 12.5007V17.084Z" fill="#B4B4BB"/>
<path d="M6.70825 2.875L6.70825 5.75" stroke="#B4B4BB" stroke-width="2" stroke-linecap="round"/>
<path d="M16.2917 2.875L16.2917 5.75" stroke="#B4B4BB" stroke-width="2" stroke-linecap="round"/>
</svg>
