<svg width="23" height="23" viewBox="0 0 23 23" fill="none" xmlns="http://www.w3.org/2000/svg">
<path fill-rule="evenodd" clip-rule="evenodd" d="M16.5177 10.3153L18.2083 8.6247C18.6757 8.15733 18.9094 7.92364 19.0456 7.67802C19.3802 7.07465 19.3802 6.34141 19.0456 5.73804C18.9094 5.49242 18.6757 5.25874 18.2083 4.79136C17.741 4.32399 17.5073 4.09031 17.2617 3.95409C16.6583 3.61947 15.9251 3.61947 15.3217 3.95409C15.0761 4.09031 14.8424 4.32399 14.375 4.79137L12.6626 6.50378C13.5848 8.08677 14.9135 9.40538 16.5177 10.3153ZM11.2081 7.95826L4.68973 14.4767C4.26467 14.9017 4.05214 15.1142 3.9124 15.3753C3.77267 15.6364 3.71372 15.9312 3.59583 16.5206L3.0221 19.3893C2.95558 19.7219 2.92232 19.8882 3.01693 19.9828C3.11154 20.0774 3.27784 20.0441 3.61045 19.9776L6.4791 19.4039C7.06855 19.286 7.36328 19.227 7.62437 19.0873C7.88547 18.9476 8.09799 18.7351 8.52304 18.31L8.52306 18.31L8.52306 18.31L15.0595 11.7736C13.5063 10.7991 12.192 9.49379 11.2081 7.95826Z" fill="#B4B4BB"/>
</svg>
