<svg width="18" height="18" viewBox="0 0 18 18" fill="none" xmlns="http://www.w3.org/2000/svg">
<path d="M16.4998 8.16667H15.6082C15.4222 6.69999 14.7539 5.33673 13.7085 4.29133C12.6631 3.24592 11.2999 2.57767 9.83317 2.39167V1.50001C9.83317 1.27899 9.74537 1.06703 9.58909 0.910749C9.43281 0.754469 9.22085 0.666672 8.99984 0.666672C8.77882 0.666672 8.56686 0.754469 8.41058 0.910749C8.2543 1.06703 8.1665 1.27899 8.1665 1.50001V2.39167C6.69982 2.57767 5.33657 3.24592 4.29116 4.29133C3.24575 5.33673 2.5775 6.69999 2.3915 8.16667H1.49984C1.27882 8.16667 1.06686 8.25447 0.910582 8.41075C0.754301 8.56703 0.666504 8.77899 0.666504 9C0.666504 9.22102 0.754301 9.43298 0.910582 9.58926C1.06686 9.74554 1.27882 9.83334 1.49984 9.83334H2.3915C2.5775 11.3 3.24575 12.6633 4.29116 13.7087C5.33657 14.7541 6.69982 15.4223 8.1665 15.6083V16.5C8.1665 16.721 8.2543 16.933 8.41058 17.0893C8.56686 17.2455 8.77882 17.3333 8.99984 17.3333C9.22085 17.3333 9.43281 17.2455 9.58909 17.0893C9.74537 16.933 9.83317 16.721 9.83317 16.5V15.6083C11.2999 15.4223 12.6631 14.7541 13.7085 13.7087C14.7539 12.6633 15.4222 11.3 15.6082 9.83334H16.4998C16.7208 9.83334 16.9328 9.74554 17.0891 9.58926C17.2454 9.43298 17.3332 9.22102 17.3332 9C17.3332 8.77899 17.2454 8.56703 17.0891 8.41075C16.9328 8.25447 16.7208 8.16667 16.4998 8.16667ZM8.99984 14C8.01093 14 7.04423 13.7068 6.22199 13.1574C5.39974 12.6079 4.75888 11.8271 4.38044 10.9134C4.002 9.99979 3.90298 8.99446 4.09591 8.02455C4.28884 7.05465 4.76504 6.16373 5.4643 5.46447C6.16357 4.76521 7.05448 4.289 8.02439 4.09608C8.99429 3.90315 9.99962 4.00217 10.9133 4.38061C11.8269 4.75905 12.6078 5.39991 13.1572 6.22215C13.7066 7.0444 13.9998 8.0111 13.9998 9C13.9998 10.3261 13.4731 11.5979 12.5354 12.5355C11.5977 13.4732 10.3259 14 8.99984 14ZM8.99984 6.5C8.50538 6.5 8.02203 6.64663 7.61091 6.92133C7.19979 7.19603 6.87936 7.58648 6.69014 8.0433C6.50092 8.50011 6.45141 9.00278 6.54787 9.48773C6.64434 9.97268 6.88244 10.4181 7.23207 10.7678C7.5817 11.1174 8.02716 11.3555 8.51211 11.452C8.99706 11.5484 9.49973 11.4989 9.95655 11.3097C10.4134 11.1205 10.8038 10.8001 11.0785 10.3889C11.3532 9.97781 11.4998 9.49446 11.4998 9C11.4998 8.33696 11.2364 7.70108 10.7676 7.23224C10.2988 6.7634 9.66288 6.5 8.99984 6.5ZM8.99984 9.83334C8.83502 9.83334 8.6739 9.78446 8.53686 9.6929C8.39982 9.60133 8.29301 9.47118 8.22994 9.31891C8.16686 9.16664 8.15036 8.99908 8.18252 8.83743C8.21467 8.67578 8.29404 8.52729 8.41058 8.41075C8.52713 8.29421 8.67561 8.21484 8.83726 8.18268C8.99891 8.15053 9.16647 8.16703 9.31874 8.23011C9.47101 8.29318 9.60116 8.39999 9.69273 8.53703C9.7843 8.67407 9.83317 8.83519 9.83317 9C9.83317 9.22102 9.74537 9.43298 9.58909 9.58926C9.43281 9.74554 9.22085 9.83334 8.99984 9.83334Z" fill="#BABABA"/>
</svg>
