<svg width="35" height="35" viewBox="0 0 35 35" fill="none" xmlns="http://www.w3.org/2000/svg">
<path fill-rule="evenodd" clip-rule="evenodd" d="M5.25368 8.17035C4.375 9.04903 4.375 10.4632 4.375 13.2917V21.7083C4.375 24.5368 4.375 25.951 5.25368 26.8297C6.13236 27.7083 7.54657 27.7083 10.375 27.7083H24.625C27.4534 27.7083 28.8676 27.7083 29.7463 26.8297C30.625 25.951 30.625 24.5368 30.625 21.7083V13.2917C30.625 10.4632 30.625 9.04903 29.7463 8.17035C28.8676 7.29167 27.4534 7.29167 24.625 7.29167H10.375C7.54657 7.29167 6.13236 7.29167 5.25368 8.17035ZM9.3047 12.2929C8.84517 11.9866 8.2243 12.1108 7.91795 12.5703C7.6116 13.0298 7.73577 13.6507 8.1953 13.9571L16.3906 19.4206C17.0624 19.8684 17.9376 19.8684 18.6094 19.4206L26.8047 13.9571C27.2642 13.6507 27.3884 13.0298 27.0821 12.5703C26.7757 12.1108 26.1548 11.9866 25.6953 12.2929L17.5 17.7565L9.3047 12.2929Z" fill="#A6A6A6"/>
</svg>
