<svg width="45" height="45" viewBox="0 0 45 45" fill="none" xmlns="http://www.w3.org/2000/svg">
<path d="M33.75 9.49125V5.625H11.25V9.49125H3.75V15C3.75 19.7344 7.29187 23.6213 11.8575 24.2475C12.5115 26.1652 13.6714 27.8707 15.2147 29.1836C16.7579 30.4965 18.6272 31.3681 20.625 31.7062V33.75C20.625 34.7446 20.2299 35.6984 19.5266 36.4016C18.8234 37.1049 17.8696 37.5 16.875 37.5H15V41.25H30V37.5H28.125C27.1304 37.5 26.1766 37.1049 25.4734 36.4016C24.7701 35.6984 24.375 34.7446 24.375 33.75V31.7062C26.3728 31.3681 28.2421 30.4965 29.7854 29.1836C31.3286 27.8707 32.4885 26.1652 33.1425 24.2475C37.7081 23.6213 41.25 19.7344 41.25 15V9.49125H33.75ZM7.5 15V13.2412H11.25V20.3025C10.154 19.9139 9.20524 19.1955 8.53381 18.2462C7.86239 17.2968 7.50126 16.1628 7.5 15ZM37.5 15C37.4986 16.163 37.1374 17.2971 36.466 18.2468C35.7947 19.1964 34.846 19.9152 33.75 20.3044V13.2412H37.5V15Z" fill="#DADADA"/>
</svg>
