<svg width="35" height="35" viewBox="0 0 35 35" fill="none" xmlns="http://www.w3.org/2000/svg">
<path fill-rule="evenodd" clip-rule="evenodd" d="M17.5 34.375C26.8198 34.375 34.375 26.8198 34.375 17.5C34.375 8.18019 26.8198 0.625 17.5 0.625C8.18019 0.625 0.625 8.18019 0.625 17.5C0.625 26.8198 8.18019 34.375 17.5 34.375ZM18.5 7.1875C18.5 6.63522 18.0523 6.1875 17.5 6.1875C16.9477 6.1875 16.5 6.63522 16.5 7.1875V17.25C16.5 17.9404 17.0596 18.5 17.75 18.5H24.0625C24.6148 18.5 25.0625 18.0523 25.0625 17.5C25.0625 16.9477 24.6148 16.5 24.0625 16.5H18.5V7.1875Z" fill="#DADADA"/>
</svg>
