<svg width="20" height="20" viewBox="0 0 20 20" fill="none" xmlns="http://www.w3.org/2000/svg">
<path d="M2.74843 11.9445C2.21972 10.9941 1.95537 10.5189 1.95537 10C1.95537 9.48117 2.21972 9.00595 2.74843 8.05551L3.69253 6.35834L4.69027 4.69215C5.24902 3.75905 5.52839 3.2925 5.97772 3.03308C6.42705 2.77366 6.97079 2.76499 8.05825 2.74765L10.0001 2.71668L11.9419 2.74765C13.0294 2.76499 13.5731 2.77366 14.0224 3.03308C14.4718 3.2925 14.7511 3.75905 15.3099 4.69215L16.3076 6.35834L17.2517 8.05551C17.7804 9.00595 18.0448 9.48117 18.0448 10C18.0448 10.5189 17.7804 10.9941 17.2517 11.9445L16.3076 13.6417L15.3099 15.3079C14.7511 16.241 14.4718 16.7075 14.0224 16.9669C13.5731 17.2264 13.0294 17.235 11.9419 17.2524L10.0001 17.2833L8.05825 17.2524C6.97079 17.235 6.42706 17.2264 5.97773 16.9669C5.5284 16.7075 5.24902 16.241 4.69027 15.3079L3.69253 13.6417L2.74843 11.9445Z" stroke="#DADADA" stroke-width="2"/>
<circle cx="10" cy="10" r="2.5" stroke="#DADADA" stroke-width="2"/>
</svg>
