<svg width="45" height="45" viewBox="0 0 45 45" fill="none" xmlns="http://www.w3.org/2000/svg">
<path d="M3.75 13.375C3.75 11.4894 3.75 10.5466 4.33579 9.96079C4.92157 9.375 5.86438 9.375 7.75 9.375H37.25C39.1356 9.375 40.0784 9.375 40.6642 9.96079C41.25 10.5466 41.25 11.4894 41.25 13.375V17.75C41.25 18.2214 41.25 18.4571 41.1036 18.6036C40.9571 18.75 40.7214 18.75 40.25 18.75H4.75C4.2786 18.75 4.04289 18.75 3.89645 18.6036C3.75 18.4571 3.75 18.2214 3.75 17.75V13.375Z" fill="#DADADA"/>
<path d="M3.75 37.25C3.75 39.1356 3.75 40.0784 4.33579 40.6642C4.92157 41.25 5.86438 41.25 7.75 41.25H37.25C39.1356 41.25 40.0784 41.25 40.6642 40.6642C41.25 40.0784 41.25 39.1356 41.25 37.25V23.5C41.25 23.0286 41.25 22.7929 41.1036 22.6464C40.9571 22.5 40.7214 22.5 40.25 22.5H4.75C4.2786 22.5 4.04289 22.5 3.89645 22.6464C3.75 22.7929 3.75 23.0286 3.75 23.5V37.25Z" fill="#DADADA"/>
<path d="M13.125 5.625L13.125 11.25" stroke="#DADADA" stroke-width="2" stroke-linecap="round"/>
<path d="M31.875 5.625L31.875 11.25" stroke="#DADADA" stroke-width="2" stroke-linecap="round"/>
</svg>
