<svg width="14" height="16" viewBox="0 0 14 16" fill="none" xmlns="http://www.w3.org/2000/svg">
<path d="M2.25 15.5H1.25C1.05109 15.5 0.860322 15.421 0.71967 15.2803C0.579018 15.1397 0.5 14.9489 0.5 14.75V10.25C0.5 10.0511 0.579018 9.86032 0.71967 9.71967C0.860322 9.57902 1.05109 9.5 1.25 9.5H2.25C2.44891 9.5 2.63968 9.57902 2.78033 9.71967C2.92098 9.86032 3 10.0511 3 10.25V14.75C3 14.9489 2.92098 15.1397 2.78033 15.2803C2.63968 15.421 2.44891 15.5 2.25 15.5ZM9.25 15.5H8.25C8.05109 15.5 7.86032 15.421 7.71967 15.2803C7.57902 15.1397 7.5 14.9489 7.5 14.75V7.25C7.5 7.05109 7.57902 6.86032 7.71967 6.71967C7.86032 6.57902 8.05109 6.5 8.25 6.5H9.25C9.44891 6.5 9.63968 6.57902 9.78033 6.71967C9.92098 6.86032 10 7.05109 10 7.25V14.75C10 14.9489 9.92098 15.1397 9.78033 15.2803C9.63968 15.421 9.44891 15.5 9.25 15.5ZM12.75 15.5H11.75C11.5511 15.5 11.3603 15.421 11.2197 15.2803C11.079 15.1397 11 14.9489 11 14.75V3.75C11 3.55109 11.079 3.36032 11.2197 3.21967C11.3603 3.07902 11.5511 3 11.75 3H12.75C12.9489 3 13.1397 3.07902 13.2803 3.21967C13.421 3.36032 13.5 3.55109 13.5 3.75V14.75C13.5 14.9489 13.421 15.1397 13.2803 15.2803C13.1397 15.421 12.9489 15.5 12.75 15.5ZM5.75 15.5H4.75C4.55109 15.5 4.36032 15.421 4.21967 15.2803C4.07902 15.1397 4 14.9489 4 14.75V1.25C4 1.05109 4.07902 0.860322 4.21967 0.71967C4.36032 0.579018 4.55109 0.5 4.75 0.5H5.75C5.94891 0.5 6.13968 0.579018 6.28033 0.71967C6.42098 0.860322 6.5 1.05109 6.5 1.25V14.75C6.5 14.9489 6.42098 15.1397 6.28033 15.2803C6.13968 15.421 5.94891 15.5 5.75 15.5Z" fill="#BABABA"/>
</svg>
