<svg width="40" height="40" viewBox="0 0 40 40" fill="none" xmlns="http://www.w3.org/2000/svg">
<path d="M20 3.33333C22.1887 3.33333 24.356 3.76443 26.3781 4.60201C28.4001 5.43959 30.2375 6.66724 31.7851 8.21489C33.3328 9.76253 34.5604 11.5998 35.398 13.6219C36.2356 15.644 36.6667 17.8113 36.6667 20C36.6667 24.4203 34.9107 28.6595 31.7851 31.7851C28.6595 34.9107 24.4203 36.6667 20 36.6667C12.3333 36.6667 5.91666 31.5333 3.93333 24.55L10.3167 27.1833C10.5363 28.2505 11.1169 29.2094 11.9609 29.8985C12.8048 30.5877 13.8604 30.9649 14.95 30.9667C17.55 30.9667 19.6667 28.85 19.6667 26.25V26.0333L25.3333 21.9833H25.4667C28.9333 21.9833 31.75 19.1667 31.75 15.7C31.75 12.2333 28.9333 9.41667 25.4667 9.41667C22 9.41667 19.1667 12.2333 19.1667 15.7V15.7833L15.2167 21.55L14.95 21.5333C13.9667 21.5333 13.05 21.8333 12.3 22.35L3.33333 18.6667C4.04999 10.0833 11.2167 3.33333 20 3.33333ZM13.8 28.6167C15.1333 29.1667 16.6667 28.55 17.2167 27.2167C17.7667 25.8833 17.1333 24.3667 15.8333 23.8167L13.7 22.9333C14.5167 22.6333 15.4333 22.6167 16.3 22.9833C17.1833 23.3333 17.8667 24.0167 18.2167 24.9C18.5833 25.7667 18.5833 26.7333 18.2167 27.6C17.5 29.4 15.3833 30.2667 13.5833 29.5167C12.75 29.1667 12.1167 28.5333 11.7667 27.7833L13.8 28.6167ZM29.6667 15.7C29.6667 18.0167 27.7833 19.9 25.4667 19.9C24.3556 19.8956 23.2916 19.4511 22.5076 18.664C21.7235 17.8768 21.2833 16.811 21.2833 15.7C21.2811 15.15 21.3878 14.605 21.5973 14.0965C21.8067 13.588 22.1148 13.1259 22.5037 12.737C22.8926 12.3481 23.3546 12.0401 23.8632 11.8306C24.3717 11.6212 24.9167 11.5145 25.4667 11.5167C26.5777 11.5167 27.6435 11.9569 28.4306 12.7409C29.2178 13.525 29.6623 14.589 29.6667 15.7ZM22.3333 15.7C22.3333 17.4333 23.7333 18.85 25.4833 18.85C27.2167 18.85 28.6167 17.4333 28.6167 15.7C28.6167 13.9667 27.2167 12.55 25.4833 12.55C23.7333 12.55 22.3333 13.9667 22.3333 15.7Z" fill="#F8F8F8"/>
</svg>
