<?xml version="1.0"?>
<svg width="34" height="34" xmlns="http://www.w3.org/2000/svg" xmlns:svg="http://www.w3.org/2000/svg">
 <g class="layer">
  <title>Layer 1</title>
  <path d="m17,0.26c2.19,0 4.36,0.43 6.38,1.27c2.02,0.84 3.86,2.07 5.41,3.61c1.54,1.55 2.77,3.39 3.61,5.41c0.84,2.02 1.27,4.19 1.27,6.38c0,4.42 -1.76,8.66 -4.88,11.79c-3.13,3.12 -7.37,4.88 -11.79,4.88c-7.67,0 -14.08,-5.14 -16.07,-12.12l6.39,2.63c0.22,1.07 0.8,2.03 1.64,2.72c0.84,0.69 1.9,1.06 2.99,1.07c2.6,0 4.72,-2.12 4.72,-4.72l0,-0.22l5.66,-4.05l0.14,0c3.46,0 6.28,-2.81 6.28,-6.28c0,-3.47 -2.82,-6.28 -6.28,-6.28c-3.47,0 -6.3,2.81 -6.3,6.28l0,0.08l-3.95,5.77l-0.27,-0.02c-0.98,0 -1.9,0.3 -2.65,0.82l-8.97,-3.68c0.72,-8.59 7.89,-15.34 16.67,-15.34zm-6.2,25.29c1.33,0.55 2.87,-0.07 3.42,-1.4c0.55,-1.34 -0.09,-2.85 -1.39,-3.4l-2.13,-0.89c0.82,-0.3 1.73,-0.31 2.6,0.05c0.88,0.35 1.57,1.04 1.92,1.92c0.36,0.87 0.36,1.83 0,2.7c-0.72,1.8 -2.84,2.67 -4.64,1.92c-0.83,-0.35 -1.46,-0.99 -1.81,-1.74l2.03,0.84zm15.87,-12.92c0,2.32 -1.89,4.2 -4.2,4.2c-1.11,0 -2.18,-0.45 -2.96,-1.24c-0.79,-0.78 -1.23,-1.85 -1.23,-2.96c0,-0.55 0.11,-1.09 0.32,-1.6c0.21,-0.51 0.51,-0.97 0.9,-1.36c0.39,-0.39 0.85,-0.7 1.36,-0.91c0.51,-0.21 1.06,-0.32 1.61,-0.31c1.11,0 2.17,0.44 2.96,1.22c0.79,0.79 1.23,1.85 1.24,2.96zm-7.34,0c0,1.73 1.4,3.15 3.15,3.15c1.74,0 3.14,-1.42 3.14,-3.15c0,-1.73 -1.4,-3.15 -3.14,-3.15c-1.75,0 -3.15,1.42 -3.15,3.15z" fill="#f8f8f8" fill-opacity="0.1" id="svg_1"/>
 </g>
</svg>